#!OML:ASF F:\VICON\USERDATA\INSTALL\Justin_Nancy\Justin_Nancy.ASF
:FULLY-SPECIFIED
:DEGREES
16
root -11.6324 17.6925 -25.6173 4.14219 -3.13161 0.887445
lowerback 7.84583 2.60424 -0.900052
upperback -1.38841 3.53103 2.46938
thorax -6.06782 1.81823 2.62421
lowerneck -14.3524 -5.35133 -11.7121
upperneck 13.8016 -5.77179 6.02288
head 7.10914 -2.88059 3.25348
rclavicle -3.27995e-014 -1.98785e-014
rhumerus -42.4202 16.386 -87.4386
rradius 123.603
rwrist -0.738836
rhand -19.2927 30.5757
rfingers 7.12502
rthumb 7.02263 0.712184
lclavicle -3.27995e-014 -1.98785e-014
lhumerus -64.8382 -0.29074 92.6377
lradius 103.404
lwrist 19.7947
lhand -20.1924 8.72977
lfingers 7.12502
lthumb 6.15406 38.6204
rfemur 10.1572 0.260904 23.1591
rtibia 29.6228
rfoot 9.70298 1.80456
rtoes -6.63732
lfemur -37.1032 -3.08642 -22.1347
ltibia 41.6431
lfoot 0.874533 2.59855
ltoes -18.6279
17
root -11.6371 17.7379 -25.2115 4.03483 -2.96199 0.950347
lowerback 7.67694 3.12735 -0.279033
upperback -0.750124 4.23508 1.79074
thorax -5.24035 2.12643 1.50235
lowerneck -17.1103 -6.03429 -10.799
upperneck 14.8669 -6.66936 6.22316
head 7.9908 -3.20079 3.01486
rclavicle -9.0447e-015 -4.77083e-015
rhumerus -40.977 14.549 -87.3009
rradius 123.694
rwrist -0.742054
rhand -19.2799 31.5694
rfingers 7.12502
rthumb 7.03496 1.70627
lclavicle -9.0447e-015 -4.77083e-015
lhumerus -63.6822 -2.18822 92.4315
lradius 103.513
lwrist 19.73
lhand -20.3317 8.62346
lfingers 7.12502
lthumb 6.01959 38.5179
rfemur 11.5322 0.349651 22.6605
rtibia 28.5903
rfoot 13.0154 2.70304
rtoes -5.78143
lfemur -36.3734 -4.31565 -22.1832
ltibia 37.0016
lfoot 3.21012 3.60311
ltoes -19.7663
18
root -11.6379 17.77 -24.7965 4.03473 -3.00615 0.887395
lowerback 7.33496 3.48683 -0.040951
upperback -0.6111 4.72073 1.59881
thorax -4.88165 2.35752 1.13764
lowerneck -17.916 -6.51671 -10.4408
upperneck 15.0009 -7.32166 6.12989
head 8.21489 -3.48257 2.8213
rclavicle -2.82274e-014 7.95139e-016
rhumerus -40.9479 13.8065 -87.2849
rradius 124.093
rwrist -1.11715
rhand -18.9181 32.8743
rfingers 7.12502
rthumb 7.38417 3.0232
lclavicle -2.82274e-014 7.95139e-016
lhumerus -63.7329 -3.01836 92.5088
lradius 103.764
lwrist 19.3809
lhand -20.1589 8.45601
lfingers 7.12502
lthumb 6.18636 38.3457
rfemur 12.727 0.598822 22.2223
rtibia 27.8707
rfoot 16.1116 3.70959
rtoes -3.33084
lfemur -35.8088 -5.4926 -22.0219
ltibia 32.561
lfoot 6.35874 4.60357
ltoes -21.3701
19
root -11.6385 17.7976 -24.3837 4.05094 -3.24457 0.6681
lowerback 7.05063 3.78919 0.165457
upperback -0.711215 5.14244 1.61866
thorax -4.82011 2.56213 1.01028
lowerneck -18.024 -6.71166 -10.3689
upperneck 15.1355 -7.59188 6.07494
head 8.29712 -3.60978 2.75102
rclavicle 5.63555e-014 8.74653e-015
rhumerus -41.8412 14.2125 -87.8044
rradius 125.487
rwrist -0.547951
rhand -15.7675 21.3113
rfingers 7.12502
rthumb 10.4244 -8.41027
lclavicle 5.63555e-014 8.74653e-015
lhumerus -64.2465 -3.33744 92.6365
lradius 104.092
lwrist 18.9555
lhand -19.9716 8.41349
lfingers 7.12502
lthumb 6.36723 38.2978
rfemur 13.6842 1.18891 22.0276
rtibia 27.5899
rfoot 18.914 4.81347
rtoes -0.146895
lfemur -35.3891 -6.54836 -21.6002
ltibia 28.3972
lfoot 9.69349 5.16517
ltoes -22.6033
20
root -11.6439 17.8194 -23.9786 4.08341 -3.43233 0.195319
lowerback 6.68877 4.0092 0.545336
upperback -0.766618 5.47027 1.74606
thorax -4.6582 2.718 0.919443
lowerneck -18.0541 -6.73524 -10.3632
upperneck 15.3557 -7.65137 6.16748
head 8.38548 -3.6287 2.77226
rclavicle 6.0033e-014 -7.95139e-016
rhumerus -41.9117 14.4359 -87.6175
rradius 125.483
rwrist -0.365245
rhand -16.6888 22.8564
rfingers 7.12502
rthumb 9.53559 -6.9078
lclavicle 6.0033e-014 -7.95139e-016
lhumerus -64.7072 -3.50081 92.7067
lradius 104.491
lwrist 18.4963
lhand -19.8114 7.77551
lfingers 7.12502
lthumb 6.52187 37.6551
rfemur 14.4198 1.90237 22.2765
rtibia 27.6512
rfoot 21.0368 5.64868
rtoes 2.39328
lfemur -35.1749 -7.18276 -21.0253
ltibia 24.7424
lfoot 12.5591 4.41366
ltoes -22.1386
21
root -11.6463 17.829 -23.5767 4.17505 -3.64916 -0.277885
lowerback 6.35547 4.23173 0.973442
upperback -0.878269 5.8021 1.83119
thorax -4.55916 2.87401 0.757383
lowerneck -17.9892 -6.74464 -10.3498
upperneck 15.4629 -7.7158 6.34236
head 8.42299 -3.64262 2.82196
rclavicle -7.85199e-015 -5.56597e-015
rhumerus -41.868 14.716 -87.5024
rradius 125.624
rwrist -0.357017
rhand -17.396 24.5104
rfingers 7.12502
rthumb 8.85318 -5.28386
lclavicle -7.85199e-015 -5.56597e-015
lhumerus -65.3027 -3.72627 92.7249
lradius 105.033
lwrist 17.9787
lhand -19.7824 7.72443
lfingers 7.12502
lthumb 6.54992 37.6031
rfemur 14.9275 2.55075 22.4957
rtibia 28.1285
rfoot 22.1267 6.21866
rtoes 4.01001
lfemur -35.1943 -7.27573 -20.6967
ltibia 21.6728
lfoot 14.4685 3.22104
ltoes -19.611
22
root -11.6495 17.8247 -23.1731 4.2535 -3.8809 -0.640255
lowerback 5.99581 4.42057 1.15813
upperback -0.9606 6.06967 1.98764
thorax -4.44382 3.00598 0.815287
lowerneck -17.7523 -6.80725 -10.333
upperneck 15.3502 -7.81983 6.30676
head 8.35074 -3.69869 2.79794
rclavicle -2.37051e-014 -5.56597e-015
rhumerus -42.2039 14.9564 -87.6861
rradius 125.604
rwrist -0.543535
rhand -19.5989 29.1185
rfingers 7.12502
rthumb 6.72702 -0.754596
lclavicle -2.37051e-014 -5.56597e-015
lhumerus -65.8343 -3.80395 92.8017
lradius 105.627
lwrist 17.5373
lhand -20.5922 8.30974
lfingers 7.12502
lthumb 5.76809 38.2112
rfemur 15.3164 3.22666 22.6203
rtibia 29.0506
rfoot 22.2201 6.37557
rtoes 4.34379
lfemur -35.3683 -6.48503 -20.9391
ltibia 19.3019
lfoot 15.1184 1.96443
ltoes -17.1271
23
root -11.6558 17.8003 -22.7789 4.13902 -3.98255 -1.07718
lowerback 5.90245 4.56937 1.37438
upperback -0.983178 6.2922 2.20309
thorax -4.41909 3.11427 0.902992
lowerneck -17.6088 -6.81391 -10.3186
upperneck 15.3188 -7.84199 6.28157
head 8.31554 -3.71365 2.78735
rclavicle -2.21148e-014 -1.82882e-014
rhumerus -42.8143 15.1572 -88.0744
rradius 125.83
rwrist -0.745087
rhand -19.8872 29.0842
rfingers 7.12502
rthumb 6.44874 -0.79767
lclavicle -2.21148e-014 -1.82882e-014
lhumerus -66.2506 -3.91261 92.8935
lradius 106.11
lwrist 17.2582
lhand -20.9709 8.38304
lfingers 7.12502
lthumb 5.40249 38.2942
rfemur 15.7354 3.70711 22.872
rtibia 30.4734
rfoot 21.5629 6.20329
rtoes 3.81475
lfemur -35.3984 -4.8494 -21.6285
ltibia 17.4216
lfoot 15.4852 0.6443
ltoes -17.1171
24
root -11.6631 17.75 -22.3971 3.98149 -3.90772 -1.54671
lowerback 6.00959 4.63736 1.68704
upperback -0.991708 6.41844 2.40002
thorax -4.47894 3.17061 0.912079
lowerneck -18.3518 -6.64723 -10.8534
upperneck 16.4949 -7.62078 7.12798
head 8.88386 -3.54491 3.17969
rclavicle -2.93207e-014 -1.51076e-014
rhumerus -43.4904 15.1052 -88.494
rradius 126.061
rwrist -0.511096
rhand -19.9138 29.92
rfingers 7.12502
rthumb 6.42306 0.0373834
lclavicle -2.93207e-014 -1.51076e-014
lhumerus -66.3837 -4.04396 92.9135
lradius 106.487
lwrist 17.0182
lhand -20.5451 8.41319
lfingers 7.12502
lthumb 5.81359 38.3134
rfemur 16.054 4.01993 23.1953
rtibia 32.3159
rfoot 20.6292 5.66105
rtoes 4.43204
lfemur -35.3972 -2.74027 -22.6743
ltibia 15.9104
lfoot 16.214 0.0931493
ltoes -18.0162
